PathFileType	4	(X/Y/Z)	P:\Projects\LMB_grand_challenge_database\project_only\opensim\experimental_data\SixthCompetition/DM_bouncy5_new.trc
DataRate	CameraRate	NumFrames	NumMarkers	Units	OrigDataRate	OrigDataStartFrame	OrigNumFrames
120	120	4	68	mm	120	299	342
Frame#	Time	Sternum			Neck			R_Shoulder			L_Shoulder			Xiphoid			Thoracic			R_Asis			L_Asis			R_Psis			L_Psis			Lumbar			R_Elbow			R_ElbowMedial			R_ShoulderAnterior			R_ShoulderPosterior			R_Wrist			R_Radius			R_Ulna			L_Elbow			L_ElbowMedial			L_ShoulderAnterior			L_ShoulderPosterior			L_Wrist			L_Ulna			L_Radius			L_Thigh_Superior			L_Thigh_Inferior			L_Thigh_Lateral			L_Knee_Lateral			L_Knee_Medial			L_Patella			L_Shank_Superior			L_Shank_Inferior			L_Shank_Lateral			L_Ankle_Lateral			L_Ankle_Medial			R_Thigh_Superior			R_Thigh_Inferior			R_Thigh_Lateral			R_Knee_Lateral			R_Knee_Medial			R_Patella			R_Shank_Superior			R_Shank_Inferior			R_Shank_Lateral			R_Ankle_Lateral			RankleMedial			R_Heel			R_Toe			R_Midfoot_Medial			R_Midfoot_Lateral			R_Hindfoot			R_Midfoot_Superior			R_ToeMedial			R_ToeLateral			L_Heel			L_Toe			L_Midfoot_Medial			L_Midfoot_Lateral			L_Hindfoot			L_Midfoot_Superior			L_ToeMedial			L_ToeLateral			Oglobal			Sacral			Xglobal			Yglobal			Zglobal			
		X1	Y1	Z1	X2	Y2	Z2	X3	Y3	Z3	X4	Y4	Z4	X5	Y5	Z5	X6	Y6	Z6	X7	Y7	Z7	X8	Y8	Z8	X9	Y9	Z9	X10	Y10	Z10	X11	Y11	Z11	X12	Y12	Z12	X13	Y13	Z13	X14	Y14	Z14	X15	Y15	Z15	X16	Y16	Z16	X17	Y17	Z17	X18	Y18	Z18	X19	Y19	Z19	X20	Y20	Z20	X21	Y21	Z21	X22	Y22	Z22	X23	Y23	Z23	X24	Y24	Z24	X25	Y25	Z25	X26	Y26	Z26	X27	Y27	Z27	X28	Y28	Z28	X29	Y29	Z29	X30	Y30	Z30	X31	Y31	Z31	X32	Y32	Z32	X33	Y33	Z33	X34	Y34	Z34	X35	Y35	Z35	X36	Y36	Z36	X37	Y37	Z37	X38	Y38	Z38	X39	Y39	Z39	X40	Y40	Z40	X41	Y41	Z41	X42	Y42	Z42	X43	Y43	Z43	X44	Y44	Z44	X45	Y45	Z45	X46	Y46	Z46	X47	Y47	Z47	X48	Y48	Z48	X49	Y49	Z49	X50	Y50	Z50	X51	Y51	Z51	X52	Y52	Z52	X53	Y53	Z53	X54	Y54	Z54	X55	Y55	Z55	X56	Y56	Z56	X57	Y57	Z57	X58	Y58	Z58	X59	Y59	Z59	X60	Y60	Z60	X61	Y61	Z61	X62	Y62	Z62	X63	Y63	Z63	X64	Y64	Z64	X65	Y65	Z65	X66	Y66	Z66	X67	Y67	Z67	X68	Y68	Z68	

300	3.35	1690.95	1351.63	279.322	1533.22	1433.6	285.056	1635.32	1360.91	452.369	1619.18	1391.78	107.874	1703.44	1182.87	271.474	1438.31	1255.83	261.444	1611.12	959.12	391.644	1622.41	959.982	116.053	1411.66	1005.53	277.15	1414.31	1003.54	197.269	1418.24	1053.61	240.145	1579.73	1044	536.658	-0	0	0	-0	0	0	-0	0	0	1643.57	772.154	514.832	1650.64	783.986	472.544	1596.97	775.051	519.032	1662.83	1057.62	14.1776	-0	0	0	-0	0	0	-0	0	0	1768.69	812.109	58.9131	1733.71	813.947	26.08	1744.52	825.268	98.39960000000001	1566.16	782.865	79.52849999999999	1601.83	562.048	93.1508	1645.91	654.956	113.308	-0	0	0	-0	0	0	1630.77	447.099	138.102	1509.99	447.669	93.0341	1278.69	318.464	118.921	1429.1	332.976	165.959	-0	0	0	-0	0	0	1556.27	777.14	413.908	1628.88	574.9880000000001	365.325	1664.51	711.006	391.494	-0	0	0	-0	0	0	1721.99	502.629	293.397	1594.59	393.126	377.308	1565.1	187.844	363.904	1646.56	302.563	293.58	-0	0	0	-0	0	0	1465.35	62.1755	313.374	1765.51	50.7361	308.826	1685.97	28.7383	258.389	1676.88	25.7052	375.268	1565.15	26.2516	363.982	1629.27	116.829	314.577	1729.11	38.3454	265.465	1724.91	37.9771	356.933	1155.86	307.096	195.962	1286.79	52.4083	118.227	1240.08	97.44029999999999	185.118	1218.17	132.861	78.48220000000001	1163.18	218.735	114.439	1282	197.297	146.514	1258.45	65.44499999999999	167.91	1247.27	86.0301	76.30240000000001	-0	0	0	1412.99	1004.53	237.21	-200	0	0	-0	0	200	-0	200	0	
301	3.358333	1699.46	1353.94	278.715	1542	1435.77	285.971	1645.3	1363.67	452.587	1626.46	1394.27	107.868	1712.75	1185.54	271.375	1447.04	1257.94	262.836	1620.53	961.506	392.325	1631.75	962.461	116.986	1421	1007.75	277.897	1423.65	1005.83	198.29	1427.53	1055.87	241.025	1591.54	1046.62	537.779	-0	0	0	-0	0	0	-0	0	0	1657.31	775.2569999999999	515.478	1663.67	787.146	473.086	1610.34	778.02	520.3920000000001	1664.18	1059.06	12.6774	-0	0	0	-0	0	0	-0	0	0	1765.15	811.474	56.5184	1731.65	814.836	22.1639	1740.22	824.602	95.3338	1576.55	785.795	79.2724	1617.58	565.77	91.9849	1659.62	659.0069999999999	113.631	-0	0	0	-0	0	0	1648.5	451.308	136.893	1527.52	449.721	92.54649999999999	1298.09	318.301	119.665	1447.58	334.779	166.161	-0	0	0	-0	0	0	1562.73	780.05	414.299	1632.91	575.4299999999999	365.985	1670.61	710.96	392.021	-0	0	0	-0	0	0	1724.69	501.983	293.833	1596.51	393.5	377.47	1565.88	188.41	364.189	1647.95	302.63	293.937	-0	0	0	-0	0	0	1465.51	62.5916	313.45	1765.72	50.6232	308.711	1686.04	28.67	258.393	1676.95	25.463	375.267	1565.33	26.3274	364.011	1629.49	116.784	314.733	1729.22	38.2311	265.467	1725.1	37.8996	356.9	1175.38	305.39	197.52	1310.3	53.0001	119.022	1263.31	97.2824	186.209	1240.42	132.401	79.67740000000001	1183.93	217.187	115.791	1303.23	197.973	147.597	1281.85	65.435	168.808	1269.96	85.9766	77.4055	-0	0	0	1422.32	1006.79	238.094	-200	0	0	-0	0	200	-0	200	0	
302	3.366667	1708.14	1356.44	278.307	1550.83	1437.99	286.717	1655.14	1366.33	452.585	1633.66	1396.81	107.707	1721.64	1188.11	271.187	1455.83	1260.08	264.258	1629.73	963.998	393.169	1640.16	964.669	117.59	1429.86	1010	279.234	1432.33	1008.2	199.473	1436.29	1058.19	242.224	1603.41	1049.42	538.8579999999999	-0	0	0	-0	0	0	-0	0	0	1670.77	778.525	516.149	1676.48	790.47	473.519	1623.99	780.898	521.389	1665.06	1060.72	11.1735	-0	0	0	-0	0	0	-0	0	0	1761.23	811.251	53.8113	1728.87	815.557	18.702	1736.34	824.2859999999999	92.4622	1587.04	788.973	79.2021	1632.64	569.304	91.26220000000001	1673.19	663.259	113.48	-0	0	0	-0	0	0	1666.41	455.979	136.027	1544.91	451.841	92.0594	1317.79	317.401	120.143	1465.93	336.65	166.364	-0	0	0	-0	0	0	1572.8	782.509	408.364	1635.35	576.467	365.585	1676.69	710.86	392.42	-0	0	0	-0	0	0	1727.34	501.341	294.045	1598.34	393.836	377.749	1566.59	188.894	364.367	1647.85	301.598	293.67	-0	0	0	-0	0	0	1465.85	63.2911	313.409	1766.01	50.4714	308.795	1686.29	28.7091	258.396	1677.12	25.2664	375.257	1565.11	26.285	364.04	1629.72	116.797	314.904	1729.15	38.0866	265.412	1725.16	37.7268	356.949	1195.24	302.931	198.458	1334.59	52.5388	120.338	1287.03	96.44289999999999	188.149	1262.48	130.159	81.53400000000001	1204.95	214.38	117.722	1324.79	197.408	148.218	1306.38	64.7345	170.53	1293.15	84.4284	78.9666	-0	0	0	1431.09	1009.1	239.353	-200	0	0	-0	0	200	-0	200	0	
303	3.375	1716.87	1358.91	277.976	1559.41	1440.18	287.521	1665.19	1369.15	452.776	1640.72	1399.21	107.525	1730.55	1190.66	270.973	1464.65	1262.1	265.466	1639.24	966.736	393.641	1649.01	967.466	118.28	1438.96	1012.14	280.183	1441.27	1010.6	200.602	1445.21	1060.47	243.284	1615.25	1052.3	539.8680000000001	-0	0	0	-0	0	0	-0	0	0	1684.25	782.001	516.451	1689.38	793.846	473.697	1637.55	783.998	522.585	1665.86	1062.5	9.728669999999999	-0	0	0	-0	0	0	-0	0	0	1757.66	811.004	50.4596	1725.57	816.649	14.8312	1732.29	824.136	89.0763	1597.41	792.21	78.9211	1647.8	573.1319999999999	90.1913	1686.53	667.42	113.34	-0	0	0	-0	0	0	1683.65	460.383	135.182	1562.47	453.862	91.57550000000001	1337.95	315.933	120.204	1484.45	338.423	166.571	-0	0	0	-0	0	0	1582.77	783.471	407.846	1638.56	577.033	365.896	1682.63	710.8680000000001	392.715	-0	0	0	-0	0	0	1729.68	500.777	294.182	1600.03	394.159	377.982	1567.26	189.384	364.56	1650.55	302.404	294.219	-0	0	0	-0	0	0	1465.93	64.1039	313.615	1766	50.209	308.669	1686.16	28.5982	258.349	1677.06	24.9066	375.208	1565.35	26.5027	364.141	1630.12	116.833	315.121	1729.27	38.044	265.448	1725.69	37.5503	356.002	1215.78	299.315	199.006	1359.62	51.1676	122.474	1311.36	94.51730000000001	189.468	1286.03	127.295	82.7441	1226.81	210.359	118.354	1346.99	196.143	149.103	1331.6	63.4576	172.537	1317.3	81.83580000000001	80.8646	-0	0	0	1440.12	1011.37	240.392	-200	0	0	-0	0	200	-0	200	0	
